# xmcd
#
# Track frame offsets: 
#        150
#        17279
#        45701
#        69019
#        107572
#        128115
#        174257
#
# Disc length: 2610 seconds
#
# Revision: 0
# Processed by: cddbd v1.5.2PL0 Copyright (c) Steve Scherf et al.
# Submitted via: ExactAudioCopy v0.99pb5
#
DISCID=470a3007
DTITLE=Josh Garrett and The Bottomline - Live On Printers Alley  disc 1
DYEAR=2009
DGENRE=Blues
TTITLE0=Preacher
TTITLE1=Tore Down
TTITLE2=Take Me Home
TTITLE3=Damn Shame
TTITLE4=Zydeco Boogaloo
TTITLE5=Champagne And Reefa'
TTITLE6=Movin' On Up
EXTD=
EXTT0=
EXTT1=
EXTT2=
EXTT3=
EXTT4=
EXTT5=
EXTT6=
PLAYORDER=
